# xmcd CD database file generated by OrangeCD 5.2
#
# Track frame offsets:
#	150
#	13157
#	31949
#	48546
#	62298
#	75896
#	82535
#	94390
#	107305
#	116900
#	135171
#	152187
#	166999
#	178527
#	189768
#	213925
#	226561
#	238751
#	248458
#	260136
#
# Disc length: 3653 seconds
#
# Revision: 1
# Processed by: cddbd v1.5.1PL0 Copyright (c) Steve Scherf et al.
# Submitted via: OrangeCD 5.2
#
DISCID=e40e4314
DTITLE=Johnny Cash - The Man In black  - the very best of - cd2
DYEAR=2001
DGENRE=country
TTITLE0=Man in Black
TTITLE1=Sunday Morning Coming Down
TTITLE2=Johnny Cash - Very Best Of - Man In Black - Cd 2 - 03 - The Girl From N
TTITLE2=orth Country
TTITLE3=It Ain't Me Babe
TTITLE4=If I Were a Carpenter
TTITLE5=Busted [Live]
TTITLE6=Flesh and Blood
TTITLE7=Wanted Man
TTITLE8=What on Earth Will You Do (For
TTITLE9=One Piece at a Time
TTITLE10=(Ghost) Riders in the Sky
TTITLE11=There Ain't No Good Chain Gang
TTITLE12=A Thing Called Love
TTITLE13=Without Love
TTITLE14=Highway Patrolman
TTITLE15=The Beast in Me
TTITLE16=Sea of Heartbreak
TTITLE17=I Won't Back Down
TTITLE18=Wayfaring Stranger
TTITLE19=Me and Bobby McGee [Live from Österåker] [#]
EXTD=
EXTT0=
EXTT1=
EXTT2=
EXTT3=
EXTT4=
EXTT5=
EXTT6=
EXTT7=
EXTT8=
EXTT9=
EXTT10=
EXTT11=
EXTT12=
EXTT13=
EXTT14=
EXTT15=
EXTT16=
EXTT17=
EXTT18=
EXTT19=
PLAYORDER=
